<svg xmlns="http://www.w3.org/2000/svg" width="34" height="23.8"
     viewBox="0 0 34 23.8">
  <defs>
    <style>.a{fill:#fff;}</style>
  </defs>
  <path class="a"
        d="M28.9,40.5h-.85l-5.779-7.224A3.4,3.4,0,0,0,19.616,32H8.252A3.4,3.4,0,0,0,5.1,34.137L2.55,40.5v.12A3.392,3.392,0,0,0,0,43.9v5.95a.85.85,0,0,0,.85.85H3.4a5.1,5.1,0,0,0,10.2,0h6.8a5.1,5.1,0,0,0,10.2,0h2.55a.85.85,0,0,0,.85-.85V45.6A5.1,5.1,0,0,0,28.9,40.5ZM14.875,34.55h4.741a.846.846,0,0,1,.664.319l4.5,5.631H14.875Zm-7.413.534a.847.847,0,0,1,.789-.534h4.073V40.5H5.3ZM8.5,53.25a2.55,2.55,0,1,1,2.55-2.55A2.55,2.55,0,0,1,8.5,53.25Zm17,0a2.55,2.55,0,1,1,2.55-2.55A2.55,2.55,0,0,1,25.5,53.25Zm5.95-5.1H29.893a5.059,5.059,0,0,0-8.786,0H12.893a5.059,5.059,0,0,0-8.786,0H2.55V43.9a.851.851,0,0,1,.85-.85H28.9a2.553,2.553,0,0,1,2.55,2.55Z"
        transform="translate(0 -32)"/>
</svg>
