<svg xmlns="http://www.w3.org/2000/svg" width="26.408" height="21.126" viewBox="0 0 26.408 21.126"><defs><style>.a{fill:#fff;}</style></defs><path class="a" d="M24.138,71.992,22.03,66.757A4.4,4.4,0,0,0,17.948,64H8.461a4.4,4.4,0,0,0-4.083,2.757L2.27,71.992A5.27,5.27,0,0,0,0,76.323v7.483a1.321,1.321,0,0,0,1.32,1.32H2.2a1.321,1.321,0,0,0,1.32-1.32v-1.32H22.887v1.32a1.321,1.321,0,0,0,1.32,1.32h.88a1.321,1.321,0,0,0,1.32-1.32V76.324A5.27,5.27,0,0,0,24.138,71.992ZM6.828,67.744a1.752,1.752,0,0,1,1.633-1.1h9.487a1.752,1.752,0,0,1,1.633,1.1l1.328,3.3H5.5Zm16.94,11.221a.881.881,0,0,1-.88.88H3.521a.881.881,0,0,1-.88-.88V76.324a2.644,2.644,0,0,1,2.641-2.641H21.126a2.644,2.644,0,0,1,2.641,2.641ZM6.162,75a1.756,1.756,0,1,0,0,3.511c1.056,0,2.641.176,2.641-.878A3.388,3.388,0,0,0,6.162,75Zm14.084,0a3.388,3.388,0,0,0-2.641,2.633c0,1.054,1.584.878,2.641.878a1.756,1.756,0,1,0,0-3.511Z" transform="translate(0 -64)"/></svg>